{
 "cells": [
  {
   "cell_type": "code",
   "execution_count": null,
   "id": "11f508af-4539-4bb9-92d9-444d5ca4d2d7",
   "metadata": {
    "scrolled": true,
    "tags": []
   },
   "outputs": [
    {
     "name": "stdout",
     "output_type": "stream",
     "text": [
      "Load SE Resnet...\n"
     ]
    },
    {
     "name": "stderr",
     "output_type": "stream",
     "text": [
      "/home/irfan/Desktop/Code/Linux-IO/python_38/lib/python3.8/site-packages/torchvision/models/_utils.py:208: UserWarning: The parameter 'pretrained' is deprecated since 0.13 and will be removed in 0.15, please use 'weights' instead.\n",
      "  warnings.warn(\n",
      "/home/irfan/Desktop/Code/Linux-IO/python_38/lib/python3.8/site-packages/torchvision/models/_utils.py:223: UserWarning: Arguments other than a weight enum or `None` for 'weights' are deprecated since 0.13 and will be removed in 0.15. The current behavior is equivalent to passing `weights=ResNet152_Weights.IMAGENET1K_V1`. You can also use `weights=ResNet152_Weights.DEFAULT` to get the most up-to-date weights.\n",
      "  warnings.warn(msg)\n"
     ]
    },
    {
     "name": "stdout",
     "output_type": "stream",
     "text": [
      "Loading pose model from ../models/pose/alpha_pose/fast_421_res152_256x192.pth...\n",
      "25.106\n"
     ]
    },
    {
     "name": "stderr",
     "output_type": "stream",
     "text": [
      "ffmpeg version 4.2.7-0ubuntu0.1 Copyright (c) 2000-2022 the FFmpeg developers\n",
      "  built with gcc 9 (Ubuntu 9.4.0-1ubuntu1~20.04.1)\n",
      "  configuration: --prefix=/usr --extra-version=0ubuntu0.1 --toolchain=hardened --libdir=/usr/lib/x86_64-linux-gnu --incdir=/usr/include/x86_64-linux-gnu --arch=amd64 --enable-gpl --disable-stripping --enable-avresample --disable-filter=resample --enable-avisynth --enable-gnutls --enable-ladspa --enable-libaom --enable-libass --enable-libbluray --enable-libbs2b --enable-libcaca --enable-libcdio --enable-libcodec2 --enable-libflite --enable-libfontconfig --enable-libfreetype --enable-libfribidi --enable-libgme --enable-libgsm --enable-libjack --enable-libmp3lame --enable-libmysofa --enable-libopenjpeg --enable-libopenmpt --enable-libopus --enable-libpulse --enable-librsvg --enable-librubberband --enable-libshine --enable-libsnappy --enable-libsoxr --enable-libspeex --enable-libssh --enable-libtheora --enable-libtwolame --enable-libvidstab --enable-libvorbis --enable-libvpx --enable-libwavpack --enable-libwebp --enable-libx265 --enable-libxml2 --enable-libxvid --enable-libzmq --enable-libzvbi --enable-lv2 --enable-omx --enable-openal --enable-opencl --enable-opengl --enable-sdl2 --enable-libdc1394 --enable-libdrm --enable-libiec61883 --enable-nvenc --enable-chromaprint --enable-frei0r --enable-libx264 --enable-shared\n",
      "  libavutil      56. 31.100 / 56. 31.100\n",
      "  libavcodec     58. 54.100 / 58. 54.100\n",
      "  libavformat    58. 29.100 / 58. 29.100\n",
      "  libavdevice    58.  8.100 / 58.  8.100\n",
      "  libavfilter     7. 57.100 /  7. 57.100\n",
      "  libavresample   4.  0.  0 /  4.  0.  0\n",
      "  libswscale      5.  5.100 /  5.  5.100\n",
      "  libswresample   3.  5.100 /  3.  5.100\n",
      "  libpostproc    55.  5.100 / 55.  5.100\n",
      "Input #0, mov,mp4,m4a,3gp,3g2,mj2, from '/home/irfan/Desktop/Data/CCTV_Exp/Lock/1.mp4':\n",
      "  Metadata:\n",
      "    major_brand     : mp42\n",
      "    minor_version   : 0\n",
      "    compatible_brands: isommp42\n",
      "    creation_time   : 2023-09-03T13:42:06.000000Z\n",
      "  Duration: 00:00:14.35, start: 0.000000, bitrate: 463 kb/s\n",
      "    Stream #0:0(und): Video: h264 (High) (avc1 / 0x31637661), yuv420p(tv, bt709), 374x720 [SAR 1:1 DAR 187:360], 332 kb/s, 25.11 fps, 25.11 tbr, 12553 tbn, 50.21 tbc (default)\n",
      "    Metadata:\n",
      "      creation_time   : 2023-09-03T13:42:06.000000Z\n",
      "      handler_name    : ISO Media file produced by Google Inc. Created on: 09/03/2023.\n",
      "    Stream #0:1(eng): Audio: aac (LC) (mp4a / 0x6134706D), 44100 Hz, stereo, fltp, 127 kb/s (default)\n",
      "    Metadata:\n",
      "      creation_time   : 2023-09-03T13:42:06.000000Z\n",
      "      handler_name    : ISO Media file produced by Google Inc. Created on: 09/03/2023.\n",
      "Stream mapping:\n",
      "  Stream #0:0 (h264) -> scale\n",
      "  fps -> Stream #0:0 (rawvideo)\n",
      "Press [q] to stop, [?] for help\n",
      "[h264 @ 0x564b56d80040] co located POCs unavailable\n",
      "ffmpeg version 4.2.7-0ubuntu0.1 Copyright (c) 2000-2022 the FFmpeg developers\n",
      "  built with gcc 9 (Ubuntu 9.4.0-1ubuntu1~20.04.1)\n",
      "  configuration: --prefix=/usr --extra-version=0ubuntu0.1 --toolchain=hardened --libdir=/usr/lib/x86_64-linux-gnu --incdir=/usr/include/x86_64-linux-gnu --arch=amd64 --enable-gpl --disable-stripping --enable-avresample --disable-filter=resample --enable-avisynth --enable-gnutls --enable-ladspa --enable-libaom --enable-libass --enable-libbluray --enable-libbs2b --enable-libcaca --enable-libcdio --enable-libcodec2 --enable-libflite --enable-libfontconfig --enable-libfreetype --enable-libfribidi --enable-libgme --enable-libgsm --enable-libjack --enable-libmp3lame --enable-libmysofa --enable-libopenjpeg --enable-libopenmpt --enable-libopus --enable-libpulse --enable-librsvg --enable-librubberband --enable-libshine --enable-libsnappy --enable-libsoxr --enable-libspeex --enable-libssh --enable-libtheora --enable-libtwolame --enable-libvidstab --enable-libvorbis --enable-libvpx --enable-libwavpack --enable-libwebp --enable-libx265 --enable-libxml2 --enable-libxvid --enable-libzmq --enable-libzvbi --enable-lv2 --enable-omx --enable-openal --enable-opencl --enable-opengl --enable-sdl2 --enable-libdc1394 --enable-libdrm --enable-libiec61883 --enable-nvenc --enable-chromaprint --enable-frei0r --enable-libx264 --enable-shared\n",
      "  libavutil      56. 31.100 / 56. 31.100\n",
      "  libavcodec     58. 54.100 / 58. 54.100\n",
      "  libavformat    58. 29.100 / 58. 29.100\n",
      "  libavdevice    58.  8.100 / 58.  8.100\n",
      "  libavfilter     7. 57.100 /  7. 57.100\n",
      "  libavresample   4.  0.  0 /  4.  0.  0\n",
      "  libswscale      5.  5.100 /  5.  5.100\n",
      "  libswresample   3.  5.100 /  3.  5.100\n",
      "  libpostproc    55.  5.100 / 55.  5.100\n",
      "Input #0, mov,mp4,m4a,3gp,3g2,mj2, from '/home/irfan/Desktop/Data/CCTV_Exp/Lock/1.mp4':\n",
      "  Metadata:\n",
      "    major_brand     : mp42\n",
      "    minor_version   : 0\n",
      "    compatible_brands: isommp42\n",
      "    creation_time   : 2023-09-03T13:42:06.000000Z\n",
      "  Duration: 00:00:14.35, start: 0.000000, bitrate: 463 kb/s\n",
      "    Stream #0:0(und): Video: h264 (High) (avc1 / 0x31637661), yuv420p(tv, bt709), 374x720 [SAR 1:1 DAR 187:360], 332 kb/s, 25.11 fps, 25.11 tbr, 12553 tbn, 50.21 tbc (default)\n",
      "    Metadata:\n",
      "      creation_time   : 2023-09-03T13:42:06.000000Z\n",
      "      handler_name    : ISO Media file produced by Google Inc. Created on: 09/03/2023.\n",
      "    Stream #0:1(eng): Audio: aac (LC) (mp4a / 0x6134706D), 44100 Hz, stereo, fltp, 127 kb/s (default)\n",
      "    Metadata:\n",
      "      creation_time   : 2023-09-03T13:42:06.000000Z\n",
      "      handler_name    : ISO Media file produced by Google Inc. Created on: 09/03/2023.\n",
      "Stream mapping:\n",
      "  Stream #0:1 -> #0:0 (aac (native) -> pcm_s16le (native))\n",
      "Press [q] to stop, [?] for help\n",
      "Output #0, s16le, to 'pipe:':\n",
      "  Metadata:\n",
      "    major_brand     : mp42\n",
      "    minor_version   : 0\n",
      "    compatible_brands: isommp42\n",
      "    encoder         : Lavf58.29.100\n",
      "    Stream #0:0(eng): Audio: pcm_s16le, 10000 Hz, stereo, s16, 320 kb/s (default)\n",
      "    Metadata:\n",
      "      creation_time   : 2023-09-03T13:42:06.000000Z\n",
      "      handler_name    : ISO Media file produced by Google Inc. Created on: 09/03/2023.\n",
      "      encoder         : Lavc58.54.100 pcm_s16le\n",
      "    Last message repeated 3 times\n",
      "Output #0, rawvideo, to 'pipe:':\n",
      "  Metadata:\n",
      "    major_brand     : mp42\n",
      "    minor_version   : 0\n",
      "    compatible_brands: isommp42\n",
      "    encoder         : Lavf58.29.100\n",
      "    Stream #0:0: Video: rawvideo (RGB[24] / 0x18424752), rgb24, 640x480 [SAR 187:480 DAR 187:360], q=2-31, 73728 kb/s, 10 fps, 10 tbn, 10 tbc (default)\n",
      "    Metadata:\n",
      "      encoder         : Lavc58.54.100 rawvideo\n"
     ]
    },
    {
     "name": "stdout",
     "output_type": "stream",
     "text": [
      "Loading YOLOX-X model..\n"
     ]
    },
    {
     "name": "stderr",
     "output_type": "stream",
     "text": [
      "/home/irfan/Desktop/Code/Deep-Learning-For-Computer-Vision-org/motion-anomaly/src/feat_tracker.py:200: UserWarning: Creating a tensor from a list of numpy.ndarrays is extremely slow. Please consider converting the list to a single numpy.ndarray with numpy.array() before converting to a tensor. (Triggered internally at  ../torch/csrc/utils/tensor_new.cpp:201.)\n",
      "  curr_boxes = torch.tensor([pose['bbox'] for pose in poses])\n"
     ]
    },
    {
     "name": "stdout",
     "output_type": "stream",
     "text": [
      "Time : 2.0272421836853027\n"
     ]
    },
    {
     "name": "stderr",
     "output_type": "stream",
     "text": [
      "frame=   70 fps=2.2 q=-0.0 size=   63000kB time=00:00:07.00 bitrate=73728.0kbits/s dup=51 drop=0 speed=0.219x    \r"
     ]
    },
    {
     "name": "stdout",
     "output_type": "stream",
     "text": [
      "Time : 0.8769750595092773\n"
     ]
    },
    {
     "name": "stderr",
     "output_type": "stream",
     "text": [
      "frame=   71 fps=2.2 q=-0.0 size=   63900kB time=00:00:07.10 bitrate=73728.0kbits/s dup=51 drop=0 speed=0.216x    \r"
     ]
    },
    {
     "name": "stdout",
     "output_type": "stream",
     "text": [
      "Time : 0.5443024635314941\n"
     ]
    },
    {
     "name": "stderr",
     "output_type": "stream",
     "text": [
      "frame=   72 fps=2.2 q=-0.0 size=   64800kB time=00:00:07.20 bitrate=73728.0kbits/s dup=51 drop=0 speed=0.215x    \r"
     ]
    },
    {
     "name": "stdout",
     "output_type": "stream",
     "text": [
      "Time : 0.54427170753479\n"
     ]
    },
    {
     "name": "stderr",
     "output_type": "stream",
     "text": [
      "frame=   73 fps=2.1 q=-0.0 size=   65700kB time=00:00:07.30 bitrate=73728.0kbits/s dup=51 drop=0 speed=0.215x    \r"
     ]
    },
    {
     "name": "stdout",
     "output_type": "stream",
     "text": [
      "Time : 0.5725977420806885\n"
     ]
    },
    {
     "name": "stderr",
     "output_type": "stream",
     "text": [
      "frame=   74 fps=2.1 q=-0.0 size=   66600kB time=00:00:07.40 bitrate=73728.0kbits/s dup=51 drop=0 speed=0.214x    \r"
     ]
    },
    {
     "name": "stdout",
     "output_type": "stream",
     "text": [
      "Time : 0.5959658622741699\n"
     ]
    },
    {
     "name": "stderr",
     "output_type": "stream",
     "text": [
      "frame=   75 fps=2.1 q=-0.0 size=   67500kB time=00:00:07.50 bitrate=73728.0kbits/s dup=51 drop=0 speed=0.213x    \r"
     ]
    },
    {
     "name": "stdout",
     "output_type": "stream",
     "text": [
      "Time : 0.4820225238800049\n",
      "Time : 0.47248387336730957\n"
     ]
    },
    {
     "name": "stderr",
     "output_type": "stream",
     "text": [
      "frame=   77 fps=2.1 q=-0.0 size=   69300kB time=00:00:07.70 bitrate=73728.0kbits/s dup=51 drop=0 speed=0.213x    \r"
     ]
    },
    {
     "name": "stdout",
     "output_type": "stream",
     "text": [
      "Time : 0.4797186851501465\n",
      "Time : 0.44652843475341797\n"
     ]
    },
    {
     "name": "stderr",
     "output_type": "stream",
     "text": [
      "frame=   79 fps=2.1 q=-0.0 size=   71100kB time=00:00:07.90 bitrate=73728.0kbits/s dup=51 drop=0 speed=0.213x    \r"
     ]
    },
    {
     "name": "stdout",
     "output_type": "stream",
     "text": [
      "Time : 0.4456450939178467\n"
     ]
    },
    {
     "name": "stderr",
     "output_type": "stream",
     "text": [
      "/tmp/ipykernel_1431697/3391773304.py:58: RuntimeWarning: More than 20 figures have been opened. Figures created through the pyplot interface (`matplotlib.pyplot.figure`) are retained until explicitly closed and may consume too much memory. (To control this warning, see the rcParam `figure.max_open_warning`). Consider using `matplotlib.pyplot.close()`.\n",
      "  fig,axes = plt.subplots(nrows=1,ncols=1,figsize=(5,5))\n",
      "frame=   81 fps=2.1 q=-0.0 size=   72900kB time=00:00:08.10 bitrate=73728.0kbits/s dup=51 drop=0 speed=0.213x    \r"
     ]
    },
    {
     "name": "stdout",
     "output_type": "stream",
     "text": [
      "Time : 0.4517645835876465\n",
      "Time : 0.5240421295166016\n"
     ]
    },
    {
     "name": "stderr",
     "output_type": "stream",
     "text": [
      "frame=   82 fps=2.1 q=-0.0 size=   73800kB time=00:00:08.20 bitrate=73728.0kbits/s dup=51 drop=0 speed=0.213x    \r"
     ]
    },
    {
     "name": "stdout",
     "output_type": "stream",
     "text": [
      "Time : 0.453416109085083\n",
      "Time : 0.4382038116455078\n"
     ]
    },
    {
     "name": "stderr",
     "output_type": "stream",
     "text": [
      "frame=   84 fps=2.1 q=-0.0 size=   75600kB time=00:00:08.40 bitrate=73728.0kbits/s dup=51 drop=0 speed=0.213x    \r"
     ]
    },
    {
     "name": "stdout",
     "output_type": "stream",
     "text": [
      "Time : 0.45324015617370605\n",
      "Time : 0.5368235111236572\n"
     ]
    },
    {
     "name": "stderr",
     "output_type": "stream",
     "text": [
      "frame=   86 fps=2.1 q=-0.0 size=   77400kB time=00:00:08.60 bitrate=73728.0kbits/s dup=51 drop=0 speed=0.213x    \r"
     ]
    },
    {
     "name": "stdout",
     "output_type": "stream",
     "text": [
      "Time : 0.5369527339935303\n"
     ]
    },
    {
     "name": "stderr",
     "output_type": "stream",
     "text": [
      "frame=   87 fps=2.1 q=-0.0 size=   78300kB time=00:00:08.70 bitrate=73728.0kbits/s dup=51 drop=0 speed=0.213x    \r"
     ]
    },
    {
     "name": "stdout",
     "output_type": "stream",
     "text": [
      "Time : 0.4507925510406494\n",
      "Time : 0.4731614589691162\n"
     ]
    },
    {
     "name": "stderr",
     "output_type": "stream",
     "text": [
      "frame=   89 fps=2.1 q=-0.0 size=   80100kB time=00:00:08.90 bitrate=73728.0kbits/s dup=51 drop=0 speed=0.213x    \r"
     ]
    },
    {
     "name": "stdout",
     "output_type": "stream",
     "text": [
      "Time : 0.46563220024108887\n",
      "Time : 0.4507296085357666\n"
     ]
    },
    {
     "name": "stderr",
     "output_type": "stream",
     "text": [
      "frame=   91 fps=2.1 q=-0.0 size=   81900kB time=00:00:09.10 bitrate=73728.0kbits/s dup=51 drop=0 speed=0.213x    \r"
     ]
    },
    {
     "name": "stdout",
     "output_type": "stream",
     "text": [
      "Time : 0.49862194061279297\n",
      "Time : 0.4872922897338867\n"
     ]
    },
    {
     "name": "stderr",
     "output_type": "stream",
     "text": [
      "size=     426kB time=00:00:10.93 bitrate= 319.3kbits/s speed=0.25x    728.0kbits/s dup=51 drop=0 speed=0.215x    \r"
     ]
    },
    {
     "name": "stdout",
     "output_type": "stream",
     "text": [
      "Time : 0.5848369598388672\n"
     ]
    },
    {
     "name": "stderr",
     "output_type": "stream",
     "text": [
      "frame=   94 fps=2.1 q=-0.0 size=   84600kB time=00:00:09.40 bitrate=73728.0kbits/s dup=51 drop=0 speed=0.212x    \r"
     ]
    },
    {
     "name": "stdout",
     "output_type": "stream",
     "text": [
      "Time : 0.4879186153411865\n",
      "Time : 0.6508843898773193\n"
     ]
    },
    {
     "name": "stderr",
     "output_type": "stream",
     "text": [
      "frame=   96 fps=2.1 q=-0.0 size=   86400kB time=00:00:09.60 bitrate=73728.0kbits/s dup=51 drop=0 speed=0.211x    \r"
     ]
    },
    {
     "name": "stdout",
     "output_type": "stream",
     "text": [
      "Time : 0.51975417137146\n"
     ]
    },
    {
     "name": "stderr",
     "output_type": "stream",
     "text": [
      "frame=   97 fps=2.1 q=-0.0 size=   87300kB time=00:00:09.70 bitrate=73728.0kbits/s dup=51 drop=0 speed=0.211x    \r"
     ]
    },
    {
     "name": "stdout",
     "output_type": "stream",
     "text": [
      "Time : 0.5175626277923584\n"
     ]
    },
    {
     "name": "stderr",
     "output_type": "stream",
     "text": [
      "frame=   98 fps=2.1 q=-0.0 size=   88200kB time=00:00:09.80 bitrate=73728.0kbits/s dup=51 drop=0 speed=0.211x    \r"
     ]
    },
    {
     "name": "stdout",
     "output_type": "stream",
     "text": [
      "Time : 0.5052587985992432\n"
     ]
    },
    {
     "name": "stderr",
     "output_type": "stream",
     "text": [
      "frame=   99 fps=2.1 q=-0.0 size=   89100kB time=00:00:09.90 bitrate=73728.0kbits/s dup=51 drop=0 speed=0.211x    \r"
     ]
    },
    {
     "name": "stdout",
     "output_type": "stream",
     "text": [
      "Time : 0.5529270172119141\n"
     ]
    },
    {
     "name": "stderr",
     "output_type": "stream",
     "text": [
      "frame=  100 fps=2.1 q=-0.0 size=   90000kB time=00:00:10.00 bitrate=73728.0kbits/s dup=51 drop=0 speed=0.21x    \r"
     ]
    },
    {
     "name": "stdout",
     "output_type": "stream",
     "text": [
      "Time : 0.5598399639129639\n"
     ]
    },
    {
     "name": "stderr",
     "output_type": "stream",
     "text": [
      "frame=  101 fps=2.1 q=-0.0 size=   90900kB time=00:00:10.10 bitrate=73728.0kbits/s dup=51 drop=0 speed=0.21x    \r"
     ]
    }
   ],
   "source": [
    "import time\n",
    "import ffmpeg\n",
    "import numpy as np\n",
    "import cv2\n",
    "from PIL import Image\n",
    "from collections import deque\n",
    "from matplotlib import pyplot as plt\n",
    "\n",
    "from src.feat_tracker import FeatureTracker\n",
    "from src.stream_io import StreamCapture\n",
    "from src.gui import GUI\n",
    "    \n",
    "camera_ip         = \"192.168.20.221\"   \n",
    "camera_login_user = \"admin\"\n",
    "camera_login_pwd  = \"admin123\"\n",
    "camera_channel    = 0\n",
    "\n",
    "src   = '/home/irfan/Desktop/Data/CCTV_Exp/Lock/1.mp4'\n",
    "#src = '/home/irfan/Desktop/Data/Avenue_Dataset/training_videos/01.avi'\n",
    "#src   = '/home/irfan/Desktop/Data/shanghaitech/testing/frames/04_0003.avi\n",
    "#src = '/home/irfan/Desktop/Data/MOT20/train/MOT20-03/img1.avi'\n",
    "#src  = '/dev/video0'\n",
    "#src  = 'rtsp://admin:L2D841A1@192.168.0.102:554/cam/realmonitor?channel=1&subtype=0&unicast=true&proto=Onvif'\n",
    "#src  = '/home/irfan/Desktop/Data/CCTV_Exp/Lock/3.mp4'#'/dev/video0'#f\"rtsp://{camera_login_user}:{camera_login_pwd}@{camera_ip}/cam/realmonitor?channel=1&subtype={camera_channel}\"\n",
    "\n",
    "cap  = StreamCapture(src,enable_audio=True)\n",
    "flow = FeatureTracker(flow_type='sparse',qlen=200)\n",
    "#writer = cv2.VideoWriter('result.avi')\n",
    "#body_estimation = Body('../models/pose/body_pose_model.pth','cpu')\n",
    "#hand_estimation = Hand('../models/pose/hand_pose_model.pth')\n",
    "\n",
    "audio_queue = deque(maxlen=200)\n",
    "\n",
    "gui = GUI(n_view=2)\n",
    "i = 0\n",
    "results = []\n",
    "while 1:\n",
    "    init_time = time.time()\n",
    "    frame , audio    = cap.read()\n",
    "    if not len(frame): break\n",
    "    #frame            = cv2.cvtColor(frame,cv2.COLOR_YUV2RGB)\n",
    "    #frame            = cv2.resize(frame,(320,240))\n",
    "    #candidate, subset = body_estimation(oriImg)\n",
    "    #canvas = copy.deepcopy(oriImg)\n",
    "    #canvas = util.draw_bodypose(canvas, candidate, subset)\n",
    "    flow_img ,mt_mask, dists = flow.run(frame)\n",
    "    if not len(dists) : continue\n",
    "    audio_queue.append(np.abs(audio).mean())\n",
    "\n",
    "\n",
    "\n",
    "    #cv2.imshow('flow', flow_img)\n",
    "    #cv2.imshow('motion', mt_mask)\n",
    "    gui.add_view(mt_mask,0)\n",
    "    gui.add_view(flow_img,1)\n",
    "\n",
    "    if len(dists)>5:\n",
    "        fig,axes = plt.subplots(nrows=1,ncols=1,figsize=(5,5))\n",
    "        #plt.subplots_adjust(hspace=0.0)\n",
    "        axes.plot(dists[:,0],color='r'); axes.set_title('Velocity')\n",
    "        axes.get_xaxis().set_ticks([])\n",
    "        axes.grid()\n",
    "        #axes[1].plot(dists[:,1],color='r');axes[1].set_title('Accleration')\n",
    "        #axes[1].get_xaxis().set_ticks([])\n",
    "        #axes[1].grid()\n",
    "        fig.canvas.draw()\n",
    "        data1 = np.array(fig.canvas.renderer.buffer_rgba())\n",
    "\n",
    "        fig,axes = plt.subplots(nrows=1,ncols=1,figsize=(5,3))\n",
    "        axes.plot(np.array(audio_queue).reshape(-1),color='g');axes.set_title('Audio Intensity')\n",
    "        axes.plot(dists[:0],color='gray')\n",
    "        plt.legend(['audio','vel'])\n",
    "        axes.get_xaxis().set_ticks([])\n",
    "        axes.grid()\n",
    "        fig.canvas.draw()\n",
    "        data2 = np.array(fig.canvas.renderer.buffer_rgba())\n",
    "        gui.add_view(data1[:,:,:3],2)\n",
    "        gui.add_view(data2[:,:,:3],3)\n",
    "        results.append(Image.fromarray(gui.win))\n",
    "        #if dists[-1,0]>30:\n",
    "        #    cv2.imshow(f'data_{dists[-1,0]}',canvas)\n",
    "\n",
    "    cv2.imshow('res',gui.win)\n",
    "    #cv2.imshow('flow', frame)\n",
    "    if cv2.waitKey(1) & 0xFF == ord('q'):\n",
    "        break\n",
    "    print('Time :',time.time() - init_time)\n",
    "cv2.destroyAllWindows()"
   ]
  },
  {
   "cell_type": "code",
   "execution_count": null,
   "id": "5ab47138-16ea-41e5-a186-8043d119ca07",
   "metadata": {},
   "outputs": [],
   "source": [
    "#results[0].save(\"result.gif\", format=\"GIF\", append_images=results,save_all=True, duration=200, loop=1)"
   ]
  }
 ],
 "metadata": {
  "kernelspec": {
   "display_name": "python_38",
   "language": "python",
   "name": "python_38"
  },
  "language_info": {
   "codemirror_mode": {
    "name": "ipython",
    "version": 3
   },
   "file_extension": ".py",
   "mimetype": "text/x-python",
   "name": "python",
   "nbconvert_exporter": "python",
   "pygments_lexer": "ipython3",
   "version": "3.8.10"
  }
 },
 "nbformat": 4,
 "nbformat_minor": 5
}
